<svg xmlns="http://www.w3.org/2000/svg" width="2000" height="2000" viewBox="0 0 2000 2000" version="1.1"><path d="M 556.248 770.250 L 556.500 1049.500 996.750 1049.751 L 1437 1050.002 1437 770.501 L 1437 491 996.498 491 L 555.996 491 556.248 770.250 M 575.242 764.250 C 575.531 1047.737, 574.787 1020.574, 582.407 1025.796 C 587.532 1029.307, 666.834 1029.249, 672.102 1025.730 C 679.374 1020.872, 678.997 1025.799, 678.998 935.750 L 679 855 663 855 L 647 855 647 683 L 647 511 610.992 511 L 574.985 511 575.242 764.250 M 732 683 L 732 855 715.500 855 L 699 855 699.004 936.250 C 699.009 1040.569, 691.851 1028.138, 751.695 1027.764 L 793.891 1027.500 797.465 1024.035 C 803.097 1018.575, 803.033 1019.662, 802.756 934.371 L 802.500 855.500 785.750 855.226 L 769 854.952 769 682.976 L 769 511 750.500 511 L 732 511 732 683 M 854 683 L 854 855 838 855 L 822 855 822 935.766 C 822 1040.314, 815.058 1028, 874 1028 C 920.978 1028, 919.806 1028.187, 924.148 1020.016 C 925.936 1016.651, 926 1007.858, 926 763.766 L 926 511 890 511 L 854 511 854 683 M 945.240 764.427 L 945.500 1017.853 947.592 1020.677 C 953.198 1028.243, 951.550 1028, 997.398 1027.996 C 1055.971 1027.991, 1048.991 1040.401, 1048.996 936.250 L 1049 855 1033 855 L 1017 855 1017 683 L 1017 511 980.990 511 L 944.981 511 945.240 764.427 M 1102 683 L 1102 855 1085.500 855 L 1069 855 1069.004 936.250 C 1069.009 1040.422, 1061.979 1027.991, 1120.882 1027.996 C 1179.515 1028.002, 1172.500 1040.437, 1172.500 936.500 L 1172.500 855.500 1155.750 855.226 L 1139 854.952 1139 682.976 L 1139 511 1120.500 511 L 1102 511 1102 683 M 1223 683 L 1223 855 1207.500 855 L 1192 855 1192.022 935.250 C 1192.051 1040.230, 1185.168 1028, 1244.220 1028 C 1302.903 1028, 1296 1040.296, 1296 935.766 L 1296 855 1278 855 L 1260 855 1260 683 L 1260 511 1241.500 511 L 1223 511 1223 683 M 1345 682.973 L 1345 854.947 1330.250 855.223 L 1315.500 855.500 1315.238 933 C 1314.929 1024.028, 1314.700 1021.748, 1324.684 1026.878 C 1329.122 1029.158, 1407.883 1028.368, 1411.759 1026.005 C 1419.772 1021.120, 1418.992 1049.336, 1418.996 764.250 L 1419 511 1382 511 L 1345 511 1345 682.973 M 1106.500 1313.405 C 1087.472 1318.106, 1072.614 1333.029, 1067.530 1352.545 C 1066.253 1357.449, 1066 1366.890, 1066 1409.672 L 1066 1460.924 1068.392 1468.456 C 1087.382 1528.256, 1171.021 1512.463, 1171.427 1449 L 1171.500 1437.500 1155.364 1437.226 L 1139.229 1436.952 1138.810 1447.226 C 1138.352 1458.469, 1136.692 1463.128, 1131.342 1468.186 C 1121.909 1477.104, 1106.560 1473.733, 1100.896 1461.500 C 1099.174 1457.782, 1099.043 1454.086, 1099.032 1409 L 1099.020 1360.500 1101.394 1355.401 C 1111.390 1333.934, 1137.895 1344.011, 1138.843 1369.639 L 1139.227 1380 1155.113 1380 L 1171 1380 1171 1368.710 C 1171 1330.832, 1140.795 1304.933, 1106.500 1313.405 M 1553.112 1313.581 C 1535.108 1318.423, 1519.246 1334.441, 1514.531 1352.542 C 1511.722 1363.328, 1512.351 1459.444, 1515.287 1468.058 C 1532.161 1517.554, 1599.220 1518.295, 1616.194 1469.173 C 1619.820 1458.680, 1619.806 1359.153, 1616.177 1349 C 1606.567 1322.113, 1578.986 1306.622, 1553.112 1313.581 M 264.664 1367.665 C 264.299 1396.630, 264 1438.930, 264 1461.665 L 264 1503 280.500 1503 L 297 1503 297 1433.941 C 297 1395.959, 297.353 1365.100, 297.784 1365.367 C 298.215 1365.633, 304.589 1374.676, 311.948 1385.461 C 319.307 1396.247, 325.632 1404.718, 326.003 1404.286 C 326.374 1403.854, 332.198 1395.400, 338.945 1385.500 C 345.693 1375.600, 351.840 1366.841, 352.607 1366.036 C 353.799 1364.783, 354 1374.580, 354 1433.786 L 354 1503 370.500 1503 L 387 1503 386.999 1453.250 C 386.998 1425.888, 386.700 1383.588, 386.336 1359.250 L 385.674 1315 368.369 1315 L 351.063 1315 347.219 1320.250 C 345.105 1323.138, 339.388 1331.306, 334.516 1338.401 L 325.657 1351.303 323.578 1348.812 C 322.435 1347.442, 316.649 1339.273, 310.719 1330.660 L 299.938 1315 282.633 1315 L 265.327 1315 264.664 1367.665 M 409.788 1403.500 C 409.672 1452.175, 409.560 1494.362, 409.538 1497.250 L 409.500 1502.500 426 1502.500 L 442.500 1502.500 442.483 1488.750 C 442.474 1481.188, 442.362 1439, 442.233 1395 L 442 1315 426 1315 L 410 1315 409.788 1403.500 M 467 1366.836 C 467 1395.346, 466.702 1437.646, 466.337 1460.836 L 465.674 1503 494.087 1502.985 C 542.710 1502.960, 559.818 1493.836, 570.777 1462.086 C 573.176 1455.136, 573.833 1368.878, 571.569 1357.984 C 564.782 1325.311, 546.964 1315, 497.290 1315 L 467 1315 467 1366.836 M 594.667 1315.667 C 594.300 1316.033, 594 1358.333, 594 1409.667 L 594 1503 610.500 1503 L 627 1503 627 1409 L 627 1315 611.167 1315 C 602.458 1315, 595.033 1315.300, 594.667 1315.667 M 722 1344.253 C 722 1360.433, 721.701 1402.769, 721.336 1438.335 L 720.672 1503 737.336 1503 L 754 1503 754 1468.500 L 754 1434 766.750 1433.985 C 805.545 1433.940, 828.159 1411.171, 828.314 1372 C 828.483 1328.988, 811.580 1315.850, 755.250 1315.212 L 722 1314.836 722 1344.253 M 869.485 1316.250 C 868.913 1317.830, 836 1500.238, 836 1501.826 C 836 1503.994, 867.745 1503.429, 868.355 1501.250 C 868.624 1500.287, 869.376 1495.563, 870.026 1490.750 L 871.207 1482 889.558 1482 L 907.909 1482 908.456 1485.250 C 909.418 1490.977, 910.985 1501.475, 910.992 1502.250 C 910.997 1502.662, 918.200 1503, 927 1503 C 942.285 1503, 943 1502.911, 943 1501.018 C 943 1499.264, 912.741 1322.918, 911.467 1317.250 C 910.862 1314.555, 870.446 1313.593, 869.485 1316.250 M 950.225 1331.241 L 950.500 1347.500 968.244 1347.773 L 985.988 1348.046 986.244 1425.273 L 986.500 1502.500 1002.750 1502.775 L 1019 1503.050 1019 1425.547 L 1019 1348.045 1037.250 1347.773 L 1055.500 1347.500 1055.500 1331.500 L 1055.500 1315.500 1002.725 1315.241 L 949.950 1314.982 950.225 1331.241 M 1191.662 1336.750 C 1191.300 1348.713, 1191.004 1391.013, 1191.002 1430.750 L 1191 1503 1207.489 1503 L 1223.977 1503 1224.239 1462.750 L 1224.500 1422.500 1244.500 1422.500 L 1264.500 1422.500 1264.761 1462.750 L 1265.023 1503 1281.675 1503 L 1298.328 1503 1297.665 1440.750 C 1297.300 1406.513, 1297.001 1364.213, 1297.001 1346.750 L 1297 1315 1281.012 1315 L 1265.024 1315 1264.762 1352.250 L 1264.500 1389.500 1244.250 1389.771 L 1224 1390.041 1224 1352.521 L 1224 1315 1208.159 1315 L 1192.319 1315 1191.662 1336.750 M 1390.663 1361.664 C 1390.298 1387.330, 1390 1429.630, 1390 1455.664 L 1390 1503 1419.290 1503 C 1487.286 1503, 1518.949 1458.241, 1484.031 1411.480 L 1480.283 1406.461 1484.621 1401.532 C 1521.791 1359.291, 1489.213 1315.049, 1420.913 1315.015 L 1391.326 1315 1390.663 1361.664 M 1631 1315.819 C 1631 1316.297, 1637.798 1336.649, 1646.106 1361.045 L 1661.211 1405.403 1645.995 1452.908 C 1637.626 1479.035, 1630.556 1500.994, 1630.283 1501.706 C 1629.889 1502.732, 1633.197 1503, 1646.278 1503 L 1662.771 1503 1664.732 1495.750 C 1665.811 1491.763, 1670.019 1475.989, 1674.083 1460.697 C 1678.973 1442.299, 1681.723 1433.503, 1682.212 1434.697 C 1682.979 1436.567, 1700 1501.359, 1700 1502.407 C 1700 1502.733, 1707.425 1503, 1716.500 1503 C 1725.575 1503, 1732.998 1502.888, 1732.995 1502.750 C 1732.992 1502.612, 1726.093 1480.675, 1717.664 1454 L 1702.338 1405.500 1717.628 1360.250 L 1732.917 1315 1716.594 1315 L 1700.271 1315 1691.491 1346.250 C 1686.661 1363.438, 1682.434 1378.036, 1682.098 1378.692 C 1681.761 1379.348, 1677.428 1365.398, 1672.470 1347.692 L 1663.455 1315.500 1647.227 1315.225 C 1638.302 1315.074, 1631 1315.341, 1631 1315.819 M 1563.500 1344.680 C 1562.400 1344.899, 1560.496 1345.292, 1559.268 1345.553 C 1556.033 1346.243, 1550.192 1351.703, 1547.914 1356.168 C 1546.023 1359.875, 1545.957 1361.974, 1546.223 1409.928 L 1546.500 1459.830 1549.542 1464.156 C 1558.882 1477.443, 1577.135 1475.512, 1584.100 1460.500 C 1586.379 1455.589, 1587.029 1366.167, 1584.839 1358.858 C 1582.144 1349.863, 1571.846 1343.020, 1563.500 1344.680 M 500 1373.736 C 500 1388.552, 499.701 1416.310, 499.336 1435.422 L 498.673 1470.170 511.170 1469.835 C 526.091 1469.435, 531.136 1467.186, 536.474 1458.552 L 539.500 1453.657 539.500 1407.505 L 539.500 1361.354 536.741 1357.186 C 531.457 1349.200, 527.528 1347.551, 512.825 1347.150 L 500 1346.799 500 1373.736 M 754.667 1347.667 C 754.300 1348.033, 754 1360.183, 754 1374.667 L 754 1401 766.032 1401 C 780 1401, 782.863 1400.120, 788.227 1394.175 C 801.426 1379.548, 797.354 1352.525, 781.277 1348.060 C 777.141 1346.911, 755.738 1346.595, 754.667 1347.667 M 1423 1368.598 L 1423 1390.196 1436.250 1389.845 C 1476.662 1388.773, 1475.739 1347, 1435.304 1347 L 1423 1347 1423 1368.598 M 889 1373.415 C 889 1374.744, 886.303 1392.631, 883.007 1413.165 C 879.710 1433.699, 877.010 1451.063, 877.007 1451.750 C 877.002 1452.685, 880.233 1453, 889.848 1453 L 902.696 1453 900.983 1441.750 C 900.041 1435.563, 897.330 1417.112, 894.959 1400.750 C 891.234 1375.043, 889 1364.794, 889 1373.415 M 1423.750 1422.548 C 1423.338 1422.980, 1423 1433.833, 1423 1446.667 L 1423 1470 1434.250 1469.978 C 1473.658 1469.901, 1474.511 1424.317, 1435.142 1422.306 C 1429.289 1422.007, 1424.162 1422.116, 1423.750 1422.548" stroke="none" fill="#0e0e0e" fill-rule="evenodd"/><path d="M -0 1000 L -0 2000.001 1000.250 1999.750 L 2000.500 1999.500 2000.750 999.750 L 2001.001 0 1000.500 0 L 0 0 -0 1000 M 0.498 1000.500 C 0.498 1550.500, 0.611 1775.650, 0.750 1500.833 C 0.889 1226.016, 0.889 776.016, 0.750 500.833 C 0.611 225.650, 0.498 450.500, 0.498 1000.500 M 556.248 770.250 L 556.500 1049.500 996.750 1049.751 L 1437 1050.002 1437 770.501 L 1437 491 996.498 491 L 555.996 491 556.248 770.250 M 575.242 764.250 C 575.531 1047.737, 574.787 1020.574, 582.407 1025.796 C 587.532 1029.307, 666.834 1029.249, 672.102 1025.730 C 679.374 1020.872, 678.997 1025.799, 678.998 935.750 L 679 855 663 855 L 647 855 647 683 L 647 511 610.992 511 L 574.985 511 575.242 764.250 M 732 683 L 732 855 715.500 855 L 699 855 699.004 936.250 C 699.009 1040.569, 691.851 1028.138, 751.695 1027.764 L 793.891 1027.500 797.465 1024.035 C 803.097 1018.575, 803.033 1019.662, 802.756 934.371 L 802.500 855.500 785.750 855.226 L 769 854.952 769 682.976 L 769 511 750.500 511 L 732 511 732 683 M 854 683 L 854 855 838 855 L 822 855 822 935.766 C 822 1040.314, 815.058 1028, 874 1028 C 920.978 1028, 919.806 1028.187, 924.148 1020.016 C 925.936 1016.651, 926 1007.858, 926 763.766 L 926 511 890 511 L 854 511 854 683 M 945.240 764.427 L 945.500 1017.853 947.592 1020.677 C 953.198 1028.243, 951.550 1028, 997.398 1027.996 C 1055.971 1027.991, 1048.991 1040.401, 1048.996 936.250 L 1049 855 1033 855 L 1017 855 1017 683 L 1017 511 980.990 511 L 944.981 511 945.240 764.427 M 1102 683 L 1102 855 1085.500 855 L 1069 855 1069.004 936.250 C 1069.009 1040.422, 1061.979 1027.991, 1120.882 1027.996 C 1179.515 1028.002, 1172.500 1040.437, 1172.500 936.500 L 1172.500 855.500 1155.750 855.226 L 1139 854.952 1139 682.976 L 1139 511 1120.500 511 L 1102 511 1102 683 M 1223 683 L 1223 855 1207.500 855 L 1192 855 1192.022 935.250 C 1192.051 1040.230, 1185.168 1028, 1244.220 1028 C 1302.903 1028, 1296 1040.296, 1296 935.766 L 1296 855 1278 855 L 1260 855 1260 683 L 1260 511 1241.500 511 L 1223 511 1223 683 M 1345 682.973 L 1345 854.947 1330.250 855.223 L 1315.500 855.500 1315.238 933 C 1314.929 1024.028, 1314.700 1021.748, 1324.684 1026.878 C 1329.122 1029.158, 1407.883 1028.368, 1411.759 1026.005 C 1419.772 1021.120, 1418.992 1049.336, 1418.996 764.250 L 1419 511 1382 511 L 1345 511 1345 682.973 M 1106.500 1313.405 C 1087.472 1318.106, 1072.614 1333.029, 1067.530 1352.545 C 1066.253 1357.449, 1066 1366.890, 1066 1409.672 L 1066 1460.924 1068.392 1468.456 C 1087.382 1528.256, 1171.021 1512.463, 1171.427 1449 L 1171.500 1437.500 1155.364 1437.226 L 1139.229 1436.952 1138.810 1447.226 C 1138.352 1458.469, 1136.692 1463.128, 1131.342 1468.186 C 1121.909 1477.104, 1106.560 1473.733, 1100.896 1461.500 C 1099.174 1457.782, 1099.043 1454.086, 1099.032 1409 L 1099.020 1360.500 1101.394 1355.401 C 1111.390 1333.934, 1137.895 1344.011, 1138.843 1369.639 L 1139.227 1380 1155.113 1380 L 1171 1380 1171 1368.710 C 1171 1330.832, 1140.795 1304.933, 1106.500 1313.405 M 1553.112 1313.581 C 1535.108 1318.423, 1519.246 1334.441, 1514.531 1352.542 C 1511.722 1363.328, 1512.351 1459.444, 1515.287 1468.058 C 1532.161 1517.554, 1599.220 1518.295, 1616.194 1469.173 C 1619.820 1458.680, 1619.806 1359.153, 1616.177 1349 C 1606.567 1322.113, 1578.986 1306.622, 1553.112 1313.581 M 264.664 1367.665 C 264.299 1396.630, 264 1438.930, 264 1461.665 L 264 1503 280.500 1503 L 297 1503 297 1433.941 C 297 1395.959, 297.353 1365.100, 297.784 1365.367 C 298.215 1365.633, 304.589 1374.676, 311.948 1385.461 C 319.307 1396.247, 325.632 1404.718, 326.003 1404.286 C 326.374 1403.854, 332.198 1395.400, 338.945 1385.500 C 345.693 1375.600, 351.840 1366.841, 352.607 1366.036 C 353.799 1364.783, 354 1374.580, 354 1433.786 L 354 1503 370.500 1503 L 387 1503 386.999 1453.250 C 386.998 1425.888, 386.700 1383.588, 386.336 1359.250 L 385.674 1315 368.369 1315 L 351.063 1315 347.219 1320.250 C 345.105 1323.138, 339.388 1331.306, 334.516 1338.401 L 325.657 1351.303 323.578 1348.812 C 322.435 1347.442, 316.649 1339.273, 310.719 1330.660 L 299.938 1315 282.633 1315 L 265.327 1315 264.664 1367.665 M 409.788 1403.500 C 409.672 1452.175, 409.560 1494.362, 409.538 1497.250 L 409.500 1502.500 426 1502.500 L 442.500 1502.500 442.483 1488.750 C 442.474 1481.188, 442.362 1439, 442.233 1395 L 442 1315 426 1315 L 410 1315 409.788 1403.500 M 467 1366.836 C 467 1395.346, 466.702 1437.646, 466.337 1460.836 L 465.674 1503 494.087 1502.985 C 542.710 1502.960, 559.818 1493.836, 570.777 1462.086 C 573.176 1455.136, 573.833 1368.878, 571.569 1357.984 C 564.782 1325.311, 546.964 1315, 497.290 1315 L 467 1315 467 1366.836 M 594.667 1315.667 C 594.300 1316.033, 594 1358.333, 594 1409.667 L 594 1503 610.500 1503 L 627 1503 627 1409 L 627 1315 611.167 1315 C 602.458 1315, 595.033 1315.300, 594.667 1315.667 M 722 1344.253 C 722 1360.433, 721.701 1402.769, 721.336 1438.335 L 720.672 1503 737.336 1503 L 754 1503 754 1468.500 L 754 1434 766.750 1433.985 C 805.545 1433.940, 828.159 1411.171, 828.314 1372 C 828.483 1328.988, 811.580 1315.850, 755.250 1315.212 L 722 1314.836 722 1344.253 M 869.485 1316.250 C 868.913 1317.830, 836 1500.238, 836 1501.826 C 836 1503.994, 867.745 1503.429, 868.355 1501.250 C 868.624 1500.287, 869.376 1495.563, 870.026 1490.750 L 871.207 1482 889.558 1482 L 907.909 1482 908.456 1485.250 C 909.418 1490.977, 910.985 1501.475, 910.992 1502.250 C 910.997 1502.662, 918.200 1503, 927 1503 C 942.285 1503, 943 1502.911, 943 1501.018 C 943 1499.264, 912.741 1322.918, 911.467 1317.250 C 910.862 1314.555, 870.446 1313.593, 869.485 1316.250 M 950.225 1331.241 L 950.500 1347.500 968.244 1347.773 L 985.988 1348.046 986.244 1425.273 L 986.500 1502.500 1002.750 1502.775 L 1019 1503.050 1019 1425.547 L 1019 1348.045 1037.250 1347.773 L 1055.500 1347.500 1055.500 1331.500 L 1055.500 1315.500 1002.725 1315.241 L 949.950 1314.982 950.225 1331.241 M 1191.662 1336.750 C 1191.300 1348.713, 1191.004 1391.013, 1191.002 1430.750 L 1191 1503 1207.489 1503 L 1223.977 1503 1224.239 1462.750 L 1224.500 1422.500 1244.500 1422.500 L 1264.500 1422.500 1264.761 1462.750 L 1265.023 1503 1281.675 1503 L 1298.328 1503 1297.665 1440.750 C 1297.300 1406.513, 1297.001 1364.213, 1297.001 1346.750 L 1297 1315 1281.012 1315 L 1265.024 1315 1264.762 1352.250 L 1264.500 1389.500 1244.250 1389.771 L 1224 1390.041 1224 1352.521 L 1224 1315 1208.159 1315 L 1192.319 1315 1191.662 1336.750 M 1390.663 1361.664 C 1390.298 1387.330, 1390 1429.630, 1390 1455.664 L 1390 1503 1419.290 1503 C 1487.286 1503, 1518.949 1458.241, 1484.031 1411.480 L 1480.283 1406.461 1484.621 1401.532 C 1521.791 1359.291, 1489.213 1315.049, 1420.913 1315.015 L 1391.326 1315 1390.663 1361.664 M 1631 1315.819 C 1631 1316.297, 1637.798 1336.649, 1646.106 1361.045 L 1661.211 1405.403 1645.995 1452.908 C 1637.626 1479.035, 1630.556 1500.994, 1630.283 1501.706 C 1629.889 1502.732, 1633.197 1503, 1646.278 1503 L 1662.771 1503 1664.732 1495.750 C 1665.811 1491.763, 1670.019 1475.989, 1674.083 1460.697 C 1678.973 1442.299, 1681.723 1433.503, 1682.212 1434.697 C 1682.979 1436.567, 1700 1501.359, 1700 1502.407 C 1700 1502.733, 1707.425 1503, 1716.500 1503 C 1725.575 1503, 1732.998 1502.888, 1732.995 1502.750 C 1732.992 1502.612, 1726.093 1480.675, 1717.664 1454 L 1702.338 1405.500 1717.628 1360.250 L 1732.917 1315 1716.594 1315 L 1700.271 1315 1691.491 1346.250 C 1686.661 1363.438, 1682.434 1378.036, 1682.098 1378.692 C 1681.761 1379.348, 1677.428 1365.398, 1672.470 1347.692 L 1663.455 1315.500 1647.227 1315.225 C 1638.302 1315.074, 1631 1315.341, 1631 1315.819 M 1563.500 1344.680 C 1562.400 1344.899, 1560.496 1345.292, 1559.268 1345.553 C 1556.033 1346.243, 1550.192 1351.703, 1547.914 1356.168 C 1546.023 1359.875, 1545.957 1361.974, 1546.223 1409.928 L 1546.500 1459.830 1549.542 1464.156 C 1558.882 1477.443, 1577.135 1475.512, 1584.100 1460.500 C 1586.379 1455.589, 1587.029 1366.167, 1584.839 1358.858 C 1582.144 1349.863, 1571.846 1343.020, 1563.500 1344.680 M 500 1373.736 C 500 1388.552, 499.701 1416.310, 499.336 1435.422 L 498.673 1470.170 511.170 1469.835 C 526.091 1469.435, 531.136 1467.186, 536.474 1458.552 L 539.500 1453.657 539.500 1407.505 L 539.500 1361.354 536.741 1357.186 C 531.457 1349.200, 527.528 1347.551, 512.825 1347.150 L 500 1346.799 500 1373.736 M 754.667 1347.667 C 754.300 1348.033, 754 1360.183, 754 1374.667 L 754 1401 766.032 1401 C 780 1401, 782.863 1400.120, 788.227 1394.175 C 801.426 1379.548, 797.354 1352.525, 781.277 1348.060 C 777.141 1346.911, 755.738 1346.595, 754.667 1347.667 M 1423 1368.598 L 1423 1390.196 1436.250 1389.845 C 1476.662 1388.773, 1475.739 1347, 1435.304 1347 L 1423 1347 1423 1368.598 M 889 1373.415 C 889 1374.744, 886.303 1392.631, 883.007 1413.165 C 879.710 1433.699, 877.010 1451.063, 877.007 1451.750 C 877.002 1452.685, 880.233 1453, 889.848 1453 L 902.696 1453 900.983 1441.750 C 900.041 1435.563, 897.330 1417.112, 894.959 1400.750 C 891.234 1375.043, 889 1364.794, 889 1373.415 M 1423.750 1422.548 C 1423.338 1422.980, 1423 1433.833, 1423 1446.667 L 1423 1470 1434.250 1469.978 C 1473.658 1469.901, 1474.511 1424.317, 1435.142 1422.306 C 1429.289 1422.007, 1424.162 1422.116, 1423.750 1422.548" stroke="none" fill="#fbfbfb" fill-rule="evenodd"/></svg>